<svg xmlns="http://www.w3.org/2000/svg" xmlns:xlink="http://www.w3.org/1999/xlink" id="flag-icon-css-my" viewBox="0 0 640 480" width="640"  height="480" ><defs><path id="my_a" fill="#FFFFFF" d="M0 445.8h640V480H0z"></path><path id="my_a" fill="#FFFFFF" d="M0 445.8h640V480H0z"></path><path id="my_a" fill="#FFFFFF" d="M0 445.8h640V480H0z"></path><path id="my_a" fill="#FFFFFF" d="M0 445.8h640V480H0z"></path><path id="my_a" fill="#FFFFFF" d="M0 445.8h640V480H0z"></path><path id="my_a" fill="#FFFFFF" d="M0 445.8h640V480H0z"></path></defs>
<path fill="#CC0001" d="M0 0h640v480H0z"></path>
<path id="my_a" fill="#FFFFFF" d="M0 445.8h640V480H0z"></path>
<use width="100%" height="100%" transform="translate(0 -68.6)" xlink:href="#my_a"></use>
<use width="100%" height="100%" transform="translate(0 -137.2)" xlink:href="#my_a"></use>
<use width="100%" height="100%" transform="translate(0 -205.8)" xlink:href="#my_a"></use>
<use width="100%" height="100%" transform="translate(0 -274.3)" xlink:href="#my_a"></use>
<use width="100%" height="100%" transform="translate(0 -343)" xlink:href="#my_a"></use>
<use width="100%" height="100%" transform="translate(0 -411.5)" xlink:href="#my_a"></use>
<path fill="#010066" d="M0 0h372.6v274.3H0z"></path>
<g fill="#FFCC00">
<path d="M149.7 48.5c-49 0-88.9 39.7-88.9 88.6a88.8 88.8 0 0089 88.6 88.7 88.7 0 0048-14 78.9 78.9 0 01-25.8 4.2 78.7 78.7 0 01-78.8-78.5 78.7 78.7 0 01106.2-73.7 88.7 88.7 0 00-49.7-15.2z" fill="#FFCC00"></path>
<path d="M297.1 183.2l-37.4-19.5 11 40-25-33.5-7.8 40.7-7.7-40.7-25.1 33.4 11.2-40-37.6 19.5 28-31.3-42.5 1.6 39-16.3-39-16.5 42.5 1.7L178.9 91l37.4 19.5-11-40 25 33.5 7.8-40.7 7.7 40.7 25.1-33.3-11.2 39.9 37.6-19.4-28 31.2 42.5-1.6-39 16.4 39 16.5-42.5-1.8z" fill="#FFCC00"></path>
</g>
</svg>