<svg width="24" height="24" viewBox="0 0 24 24" fill="none" xmlns="http://www.w3.org/2000/svg">
<path d="M20.3464 12.8825C20.4095 12.2956 20.4095 11.7044 20.3464 11.1175H22.1184C22.1431 11.4087 22.1585 11.7026 22.1585 12C22.1585 12.2974 22.1431 12.5913 22.1184 12.8825H20.3464ZM20.3216 17.8124L19.0487 16.539C19.598 15.6918 19.989 14.752 20.203 13.7649H22.0019C21.7455 15.221 21.1715 16.6025 20.3216 17.8124ZM18.5293 19.7702L17.2749 18.5157C17.7346 18.1433 18.1534 17.7241 18.5258 17.2644L19.7807 18.5184C19.4003 18.9711 18.9816 19.3898 18.5293 19.7702ZM13.7749 21.9918V20.1929C14.762 19.9789 15.7023 19.5875 16.5495 19.0381L17.8224 20.3116C16.6125 21.1614 15.231 21.735 13.7749 21.9918ZM12.8924 22.1078C12.6012 22.133 12.3073 22.1484 12.0099 22.1484C11.713 22.1484 11.4191 22.133 11.1274 22.1078V20.3363C11.7143 20.3989 12.3056 20.3989 12.8924 20.3363V22.1078ZM10.245 21.9918C8.78929 21.735 7.40731 21.1614 6.19786 20.3116L7.47085 19.0381C8.31804 19.5875 9.25789 19.9789 10.245 20.1929V21.9918ZM4.23962 18.5184L5.49407 17.2644C5.86648 17.7241 6.28611 18.1433 6.74544 18.5157L5.49099 19.7702C5.03871 19.3898 4.61997 18.9711 4.23962 18.5184ZM3.69865 17.8124C2.84837 16.6025 2.27475 15.221 2.01795 13.7649H3.8169C4.03047 14.752 4.42185 15.6918 4.97164 16.539L3.69865 17.8124ZM1.86131 12C1.86131 11.7026 1.87719 11.4087 1.9019 11.1175H3.6735C3.6104 11.7044 3.6104 12.2956 3.6735 12.8825H1.9019C1.87719 12.5913 1.86131 12.2974 1.86131 12ZM3.69865 6.18761L4.97164 7.46101C4.42185 8.30818 4.03047 9.24801 3.8169 10.2351H2.01795C2.27475 8.77898 2.84837 7.39747 3.69865 6.18761ZM5.49099 4.22984L6.74544 5.48428C6.28611 5.85668 5.86648 6.27585 5.49407 6.73562L4.23962 5.48119C4.61997 5.02892 5.03871 4.61019 5.49099 4.22984ZM10.245 2.00822V3.80714C9.25789 4.02114 8.31804 4.41207 7.47085 4.96185L6.19786 3.68845C7.40731 2.83863 8.78929 2.26502 10.245 2.00822ZM11.1274 1.89218C11.4191 1.86703 11.713 1.85158 12.0099 1.85158C12.3073 1.85158 12.6012 1.86703 12.8924 1.89218V3.66374C12.3056 3.60064 11.7143 3.60064 11.1274 3.66374V1.89218ZM13.7749 2.00822C15.231 2.26502 16.6125 2.83863 17.8224 3.68845L16.5495 4.96185C15.7023 4.41207 14.762 4.02114 13.7749 3.80714V2.00822ZM19.7802 5.48119L18.5258 6.73562C18.1534 6.27585 17.7342 5.85668 17.2744 5.48428L18.5289 4.22984C18.9811 4.61019 19.3999 5.02892 19.7802 5.48119ZM19.5111 12C19.5111 16.1428 16.1528 19.501 12.0099 19.501C7.86929 19.4961 4.51363 16.1406 4.50877 12C4.50877 7.85724 7.86753 4.499 12.0099 4.499C16.1528 4.499 19.5111 7.85724 19.5111 12ZM22.0019 10.2351H20.203C19.989 9.24801 19.598 8.30818 19.0487 7.46101L20.3216 6.18761C21.1715 7.39747 21.7451 8.77898 22.0019 10.2351ZM11.9998 1C5.92473 1 1 5.92507 1 12C1 18.0754 5.92473 23 11.9998 23C18.0753 23 23 18.0754 23 12C23 5.92507 18.0753 1 11.9998 1Z" fill="white"/>
<path d="M14.718 12.0808L11.9991 14.8946L9.2832 12.0808C8.77709 11.5478 8.77709 10.7112 9.28364 10.1787C9.5175 9.93289 9.84181 9.7939 10.1811 9.7939C10.52 9.7939 10.8448 9.93289 11.0782 10.1787L11.6836 10.8083C11.8605 10.9813 12.1433 10.9813 12.3203 10.8083L12.9235 10.1791C13.1591 9.93333 13.4838 9.79434 13.824 9.79345C14.162 9.7939 14.4855 9.93333 14.718 10.1787C15.2228 10.7121 15.2228 11.5474 14.718 12.0808ZM13.828 8.91098H13.824C13.2442 8.91098 12.6896 9.14793 12.289 9.56666L12.0017 9.86582L11.714 9.56534C11.3138 9.14749 10.76 8.91098 10.1816 8.91098C9.60266 8.91098 9.04889 9.14749 8.64869 9.56534C7.81518 10.4416 7.81518 11.8174 8.64869 12.6941L11.6849 15.8357C11.7678 15.9218 11.8821 15.9699 12.0021 15.9699C12.1213 15.9699 12.236 15.9218 12.319 15.8357L15.3547 12.6941C16.19 11.8183 16.19 10.4412 15.3547 9.56534C14.9563 9.14793 14.4047 8.91142 13.828 8.91098Z" fill="white"/>
<path d="M12.0099 17.736C8.84181 17.736 6.27377 15.168 6.27377 11.9999C6.2773 8.83359 8.84313 6.26737 12.0099 6.26384C15.1781 6.26384 17.7461 8.83183 17.7461 11.9999C17.7461 15.168 15.1781 17.736 12.0099 17.736ZM12.0099 5.38136C8.35468 5.38136 5.39128 8.3447 5.39128 11.9999C5.39525 15.6533 8.35644 18.614 12.0099 18.6184C15.6652 18.6184 18.6286 15.6551 18.6286 11.9999C18.6286 8.3447 15.6652 5.38136 12.0099 5.38136Z" fill="white"/>
</svg>
