<svg width="21" height="19" viewBox="0 0 21 19" fill="none" xmlns="http://www.w3.org/2000/svg">
<g clip-path="url(#clip0_213_2)">
<path d="M3.98392 15.9898H16.2949V18.7428H3.98392V15.9898ZM18.8169 5.66078C18.1319 5.66078 17.5769 6.21778 17.5769 6.90478C17.5769 7.23278 17.7059 7.52878 17.9119 7.75078C16.9869 8.57478 15.7569 9.51078 15.0559 9.38078C13.4389 9.08278 11.5119 5.19078 10.6269 3.21078C11.0689 3.01978 11.3789 2.57978 11.3789 2.06678C11.3789 1.37878 10.8239 0.821777 10.1389 0.821777C9.45492 0.821777 8.89892 1.37878 8.89892 2.06678C8.89892 2.57878 9.20892 3.01878 9.64892 3.20878C8.76592 5.18278 6.83992 9.05178 5.22192 9.34878C4.52292 9.47878 3.29492 8.55878 2.37092 7.74578C2.57392 7.52378 2.70092 7.22978 2.70092 6.90578C2.70092 6.21778 2.14592 5.66078 1.46092 5.66078C0.777924 5.66078 0.221924 6.21778 0.221924 6.90478C0.221924 7.59178 0.776924 8.14978 1.46192 8.14978C1.52192 8.14978 1.57792 8.13978 1.63492 8.13178L3.79492 15.0388H16.4819L18.6419 8.13178C18.6999 8.13978 18.7569 8.14978 18.8169 8.14978C19.5009 8.14978 20.0569 7.59178 20.0569 6.90478C20.0569 6.21778 19.5009 5.66078 18.8169 5.66078Z" fill="#FFE96A"/>
</g>
<defs>
<clipPath id="clip0_213_2">
<rect width="21" height="19" fill="white"/>
</clipPath>
</defs>
</svg>
