<svg width="24" height="24" viewBox="0 0 24 24" fill="none" xmlns="http://www.w3.org/2000/svg">
<g clip-path="url(#clip0_206_20)">
<path d="M12.2503 0.0440752C12.6123 -0.0449248 12.9943 0.00207518 13.3243 0.174075C13.6513 0.367075 13.8863 0.684075 13.9753 1.05408L14.6593 3.55908H22.5683C23.3463 3.55908 23.9823 4.18108 24.0003 4.95908V22.6001C23.9823 23.3781 23.3463 24.0001 22.5683 24.0001H10.9483C10.1753 24.0001 9.54826 23.3731 9.54826 22.6001V21.9501L6.32626 22.8281H5.96826C5.71626 22.8281 5.46825 22.7611 5.25225 22.6331C4.93225 22.4481 4.69826 22.1431 4.60226 21.7871L0.0432552 4.76408C-0.0497448 4.40908 0.0082552 4.03007 0.207255 3.72207C0.383255 3.38707 0.689255 3.14008 1.05326 3.03908L12.2503 0.0440752ZM22.5683 4.50408H10.9483C10.6963 4.50408 10.4923 4.70708 10.4923 4.95908V22.5681C10.4923 22.8251 10.6923 23.0381 10.9483 23.0561H22.5683C22.8383 23.0561 23.0563 22.8371 23.0563 22.5681V4.95908C23.0393 4.70208 22.8263 4.50308 22.5683 4.50308V4.50408ZM12.8683 0.988075C12.7583 0.928075 12.6293 0.917075 12.5103 0.956075L1.28126 3.95008C1.03526 4.02808 0.891255 4.28508 0.956255 4.53608L5.51326 21.5591C5.54826 21.6741 5.63125 21.7691 5.74025 21.8191C5.84525 21.8891 5.97526 21.9131 6.09826 21.8841L9.54826 20.9401V14.4301C9.23526 14.5861 8.88926 14.6641 8.54026 14.6581C8.11626 14.6621 7.70026 14.5501 7.33526 14.3331C6.78226 14.0321 6.38026 13.5131 6.22926 12.9011C6.05726 12.2871 6.13925 11.6311 6.45625 11.0781L8.21426 8.05107C8.34326 7.82107 8.63126 7.73408 8.86526 7.85608L9.54926 8.27908V4.95908C9.54926 4.18608 10.1753 3.55908 10.9493 3.55908H13.6823L13.0963 1.28108C13.0593 1.15908 12.9783 1.05408 12.8683 0.988075ZM19.0853 18.2061C19.3193 18.1181 19.5803 18.2341 19.6713 18.4661L20.2573 19.9641L20.8433 18.4671C20.9423 18.2331 21.2113 18.1241 21.4453 18.2221C21.6793 18.3221 21.7883 18.5911 21.6893 18.8251L20.6803 21.4281C20.6213 21.6111 20.4483 21.7311 20.2573 21.7211C20.0603 21.7251 19.8803 21.6091 19.8013 21.4281L18.7923 18.8251C18.7403 18.7051 18.7423 18.5681 18.7993 18.4491C18.8553 18.3311 18.9593 18.2421 19.0853 18.2061ZM8.80026 8.89708L7.27026 11.5671C6.85726 12.1971 7.00226 13.0391 7.60326 13.4941C8.20326 13.9491 9.05426 13.8601 9.54926 13.2911V9.35308L8.79926 8.89708H8.80026ZM13.2923 5.81208C13.4783 5.81208 13.6463 5.92508 13.7153 6.09808L14.7563 8.73507C14.7973 8.85107 14.7893 8.97908 14.7343 9.09008C14.6793 9.20008 14.5813 9.28308 14.4643 9.32008C14.3523 9.37308 14.2243 9.37508 14.1113 9.32508C13.9983 9.27508 13.9133 9.17808 13.8773 9.06008L13.2923 7.56308L12.7063 9.02808C12.6473 9.21008 12.4743 9.33008 12.2833 9.32008H12.1203C11.9963 9.29308 11.8913 9.21008 11.8353 9.09708C11.7783 8.98308 11.7753 8.85007 11.8273 8.73507L12.8683 6.09808C12.9383 5.92508 13.1053 5.81208 13.2923 5.81208ZM3.88526 4.63308C4.06526 4.57108 4.26626 4.63808 4.37326 4.79608L6.03326 7.07508C6.10926 7.17308 6.14226 7.29808 6.12326 7.42108C6.10526 7.54408 6.03725 7.65408 5.93625 7.72608C5.83725 7.80208 5.71226 7.83408 5.58926 7.81608C5.46626 7.79708 5.35625 7.72908 5.28525 7.62808L4.34026 6.32608L4.14426 7.92108C4.12726 8.16008 3.92825 8.34507 3.68925 8.34408H3.65626C3.39926 8.31007 3.21426 8.08208 3.23326 7.82408L3.52626 5.02408C3.55026 4.83108 3.69426 4.67408 3.88426 4.63408L3.88526 4.63308ZM16.4503 17.3271C16.5353 17.4151 16.6533 17.4641 16.7753 17.4641C16.8983 17.4641 17.0153 17.4141 17.1013 17.3271L19.6073 14.8541C20.5173 13.9091 20.5173 12.4141 19.6073 11.4691C18.8543 10.7311 17.7113 10.5601 16.7753 11.0461C15.7303 10.5191 14.4573 10.8201 13.7593 11.7591C13.0603 12.6991 13.1393 14.0041 13.9443 14.8541L16.4503 17.3271ZM14.6273 12.1201C14.8983 11.8561 15.2583 11.7051 15.6373 11.696C15.9433 11.6941 16.2423 11.7971 16.4823 11.9891C16.6543 12.0891 16.8643 12.0891 17.0363 11.9891C17.6123 11.5661 18.4103 11.6211 18.9233 12.1191C19.2083 12.3841 19.3703 12.7561 19.3703 13.1451C19.3703 13.5341 19.2083 13.9051 18.9233 14.1701L16.7753 16.3501L14.6273 14.1701C14.3423 13.9051 14.1803 13.5341 14.1803 13.1451C14.1803 12.7551 14.3423 12.3851 14.6273 12.1201Z" fill="white"/>
</g>
<defs>
<clipPath id="clip0_206_20">
<rect width="24" height="24" fill="white"/>
</clipPath>
</defs>
</svg>
