<svg width="22" height="22" viewBox="0 0 22 22" fill="none" xmlns="http://www.w3.org/2000/svg">
<path d="M11.286 1C5.629 1 1 5.629 1 11.286C1 16.943 5.629 21.572 11.286 21.572C16.943 21.572 21.572 16.943 21.572 11.286C21.572 5.629 16.943 1 11.286 1ZM18.357 8.2L16.9 11.843L13.686 12.057L10.986 8.372L11.972 5.715L16.472 5.372L18.357 8.2ZM9.657 1.986H9.743C10.257 1.9 10.772 1.857 11.329 1.857C13.129 1.857 14.886 2.372 16.429 3.357L16.515 3.4L16.472 3.486L16.172 4.557L11.629 4.857L9.357 3.4L9.657 1.986ZM3.829 5.457C5.029 3.916 6.7 2.8 8.586 2.2L8.757 2.157L8.715 2.415L8.5 3.486L5.886 5.543H5.843C5.5 5.543 4.986 5.586 4.129 5.629L3.615 5.672L3.829 5.457ZM2.072 13.386L2.029 13.257C1.556 10.986 1.9 8.629 3.1 6.572L3.143 6.529H3.186C4 6.486 4.857 6.4 5.457 6.4H5.543L6.443 8.757L4.857 12.957L2.072 13.386ZM7.129 9.229L10.386 8.886L13.043 12.529L11.757 15.786L7.3 16.172L5.543 13.386L7.129 9.229ZM13.257 20.543H13.172C12.529 20.672 11.886 20.757 11.243 20.757C10.215 20.757 9.186 20.586 8.2 20.243L6.743 18.443L7.343 17.029L12.057 16.6L14.243 18.272L13.257 20.543ZM19.086 16.686C17.972 18.272 16.429 19.515 14.586 20.157H14.329L15.186 18.1L17.586 16.215L19.172 16.472L19.086 16.686ZM19.643 15.743L18.016 15.486L17.458 12.615L19.001 8.8L20.501 9.143V9.229C21.016 11.415 20.715 13.729 19.643 15.743Z" fill="white"/>
</svg>
