<?xml version="1.0" encoding="UTF-8"?>
<svg xmlns="http://www.w3.org/2000/svg" width="128" height="128" viewBox="0 0 128 128" fill="none">
  <g clip-path="url(#clip0_218_23)">
    <path d="M69.4991 10.3992C83.8608 10.3572 97.6463 16.0517 107.802 26.2214C117.957 36.3913 123.644 50.1967 123.602 64.5804C123.608 78.9069 117.916 92.6461 107.783 102.759C97.6053 112.887 83.8456 118.581 69.4977 118.601C55.1917 118.608 41.4724 112.908 31.3717 102.758C21.179 92.6859 15.4758 78.9217 15.553 64.579C15.5118 50.2242 21.1766 36.4429 31.2978 26.2776C41.4188 16.1125 55.1637 10.3992 69.4991 10.3992Z" fill="white" stroke="#1D1D1B" stroke-width="0.796811"></path>
    <path d="M32.0461 34.4973C32.653 34.4998 33.2242 34.6988 33.6893 35.042C34.1545 35.3853 34.5134 35.8729 34.6965 36.456L40.1168 53.219C40.3197 53.7803 40.3214 54.3748 40.15 54.9142C39.9793 55.4516 39.6367 55.9342 39.1432 56.2796L24.9503 66.6601C24.4763 67.0294 23.8903 67.225 23.2898 67.2144C22.6613 67.2507 22.0729 67.0525 21.618 66.6619L16.8108 63.1316C16.4068 62.8901 16.0962 62.538 15.9044 62.1299C15.7149 61.7265 15.6415 61.2684 15.7089 60.8082C16.2192 51.9286 18.9971 43.3646 23.7775 35.9102C24.0255 35.4509 24.3684 35.1009 24.7759 34.8608C25.1834 34.6208 25.6554 34.4905 26.1513 34.4973L32.0461 34.4973Z" fill="#8E1841" stroke="black" stroke-width="0.796811"></path>
    <path d="M49.7424 89.0764C50.3309 89.0686 50.8902 89.2463 51.3538 89.564C51.8154 89.8802 52.1821 90.3352 52.3887 90.8839L57.8065 107.639C58.0215 108.226 58.029 108.848 57.8566 109.415C57.6848 109.981 57.3344 110.492 56.8319 110.859L52.0648 114.36C51.5586 114.667 50.9916 114.861 50.4035 114.926L49.2233 114.63C41.0606 111.328 33.8415 106.053 28.2109 99.2755C27.8716 98.9054 27.6554 98.4753 27.5597 98.0197C27.4635 97.5621 27.4888 97.0789 27.6462 96.6205L29.3954 90.8874C29.6196 90.3516 29.9903 89.9064 30.45 89.5915C30.9143 89.2734 31.4694 89.0881 32.0479 89.0764L49.7424 89.0764Z" fill="#8E1841" stroke="black" stroke-width="0.796811"></path>
    <path d="M106.953 89.0764C107.542 89.0686 108.101 89.2463 108.565 89.564C109.025 89.8797 109.392 90.3335 109.599 90.8809L111.353 96.6294C111.531 97.0777 111.58 97.557 111.508 98.017C111.436 98.4722 111.245 98.9086 110.946 99.2741C105.255 106.06 97.9806 111.336 89.767 114.633L88.7298 114.929C88.1442 114.909 87.5775 114.714 87.0992 114.366L82.1633 110.858C81.6615 110.492 81.3112 109.981 81.1394 109.415C80.9669 108.848 80.9744 108.226 81.1894 107.639L86.6052 90.8904C86.8292 90.3532 87.2004 89.907 87.6609 89.5915C88.1252 89.2734 88.6803 89.0881 89.2588 89.0764L106.953 89.0764Z" fill="#8E1841" stroke="black" stroke-width="0.796811"></path>
    <path d="M112.995 34.4976C113.971 34.5423 114.862 35.0687 115.374 35.9045C120.021 43.4232 122.789 51.9535 123.442 60.7718C123.461 61.6938 123.048 62.5716 122.326 63.1446L117.372 66.6656C116.975 67.0449 116.44 67.2434 115.893 67.2148C115.243 67.2663 114.653 67.0666 114.211 66.664L99.8457 56.2747C99.359 55.9342 99.0165 55.4515 98.8457 54.9141C98.6744 54.3748 98.6761 53.7803 98.8789 53.219L104.296 36.4657C104.497 35.8948 104.862 35.4142 105.328 35.0706C105.791 34.7285 106.355 34.5221 106.956 34.4976H112.995Z" fill="#8E1841" stroke="black" stroke-width="0.796811"></path>
    <path d="M69.5005 10.3996C73.9214 10.3699 78.3282 10.9011 82.6151 11.9805C83.5027 12.2801 84.2193 12.947 84.5827 13.8116L86.4852 19.5273C86.6246 20.1047 86.5845 20.6958 86.3902 21.2308C86.1943 21.7703 85.8417 22.2527 85.3583 22.6063L71.1709 32.9826C70.6752 33.3549 70.0865 33.5411 69.4979 33.5411C68.9092 33.5411 68.3205 33.3549 67.8207 32.9795L53.6306 22.6014C53.144 22.2609 52.8014 21.7783 52.6306 21.2409C52.459 20.7006 52.461 20.1049 52.6649 19.5427L54.4149 13.8071C54.779 12.9446 55.4947 12.2794 56.3818 11.9803C60.6851 10.9788 65.0845 10.4488 69.5005 10.3996Z" fill="#8E1841" stroke="black" stroke-width="0.796811"></path>
    <path d="M69.4979 48.2593C70.087 48.2593 70.6761 48.4358 71.175 48.7835L85.3582 59.1567C85.8417 59.5103 86.1943 59.9927 86.3902 60.5322C86.5846 61.0674 86.6246 61.6587 86.4851 62.2363L80.9124 79.1373C80.7264 79.6997 80.3643 80.1652 79.901 80.4827C79.4354 80.8017 78.8674 80.9711 78.2733 80.9387L60.7277 80.9388C60.1391 80.9465 59.5798 80.7688 59.1162 80.4512C58.6548 80.135 58.2881 79.6803 58.0815 79.1317L52.664 62.2178C52.461 61.6564 52.4592 61.0617 52.6306 60.5222C52.8014 59.9848 53.144 59.5021 53.6375 59.1567L67.8134 48.7887C68.3196 48.4358 68.9087 48.2593 69.4979 48.2593Z" fill="#8E1841" stroke="black" stroke-width="0.796811"></path>
    <path d="M75.3147 76.9478H13.6415C12.7613 76.9478 12.0479 77.6612 12.0479 78.5414V109.459C12.0479 110.339 12.7613 111.053 13.6415 111.053H75.3147C76.1948 111.053 76.9083 110.339 76.9083 109.459V78.5414C76.9083 77.6612 76.1948 76.9478 75.3147 76.9478Z" fill="#E8D0D9" stroke="black" stroke-width="0.796811"></path>
    <path d="M16.7234 79.6609H20.2502L15.5537 84.3641V80.8329C15.5085 80.5098 15.6175 80.1848 15.8473 79.9547C16.0768 79.7248 16.4011 79.6157 16.7234 79.6609Z" fill="white"></path>
    <path d="M16.6026 79.6511L16.7234 79.6609M16.7234 79.6609H20.2502L15.5537 84.3641V80.8329C15.5085 80.5098 15.6175 80.1848 15.8473 79.9547C16.0768 79.7248 16.4011 79.6157 16.7234 79.6609Z" stroke="#1D1D1B" stroke-width="0.796811"></path>
    <path d="M72.2327 79.6609C72.555 79.6157 72.8792 79.7248 73.1087 79.9547C73.3385 80.1848 73.4475 80.5098 73.4023 80.8329V84.3641L68.7058 79.6609H72.2327Z" fill="white" stroke="#1D1D1B" stroke-width="0.796811"></path>
    <path d="M15.5537 103.525L20.2502 108.229H16.7234C16.4011 108.274 16.0768 108.165 15.8473 107.935C15.6175 107.705 15.5085 107.38 15.5537 107.057V103.525Z" fill="white" stroke="#1D1D1B" stroke-width="0.796811"></path>
    <path d="M73.4023 103.525V107.057C73.4475 107.38 73.3385 107.705 73.1087 107.935C72.8792 108.165 72.555 108.274 72.2327 108.229H68.7058L73.4023 103.525Z" fill="white" stroke="#1D1D1B" stroke-width="0.796811"></path>
    <path d="M67.6652 84.4487H5.99206C5.11193 84.4487 4.39844 85.1622 4.39844 86.0424V116.96C4.39844 117.84 5.11193 118.554 5.99206 118.554H67.6652C68.5454 118.554 69.2589 117.84 69.2589 116.96V86.0424C69.2589 85.1622 68.5454 84.4487 67.6652 84.4487Z" fill="white" stroke="#1D1D1B" stroke-width="0.796811"></path>
    <path d="M64.5578 86.7632H9.09973C8.21959 86.7632 7.5061 87.4767 7.5061 88.3568V114.598C7.5061 115.478 8.21959 116.191 9.09973 116.191H64.5578C65.4379 116.191 66.1514 115.478 66.1514 114.598V88.3568C66.1514 87.4767 65.4379 86.7632 64.5578 86.7632Z" fill="url(#paint0_linear_218_23)"></path>
    <path d="M36.8286 110.942C41.9773 110.942 46.1512 106.761 46.1512 101.605C46.1512 96.4486 41.9773 92.2686 36.8286 92.2686C31.6798 92.2686 27.5059 96.4486 27.5059 101.605C27.5059 106.761 31.6798 110.942 36.8286 110.942Z" fill="#8E1841" stroke="black" stroke-width="0.796811"></path>
    <path d="M12.6008 87.1616L7.9043 91.8648V88.3776C7.93621 88.056 8.07922 87.7679 8.29458 87.5522C8.50976 87.3367 8.79716 87.1936 9.11804 87.1616H12.6008Z" fill="#D6E3EB" stroke="black" stroke-width="0.796811"></path>
    <path d="M64.6986 87.1616C65.0194 87.1936 65.3068 87.3367 65.522 87.5522C65.7374 87.7679 65.8804 88.056 65.9123 88.3776V91.8648L61.2158 87.1616H64.6986Z" fill="#D6E3EB" stroke="black" stroke-width="0.796811"></path>
    <path d="M7.9043 111.186L12.6008 115.889H9.11804C8.79716 115.857 8.50976 115.714 8.29458 115.498C8.07922 115.282 7.93621 114.994 7.9043 114.673V111.186Z" fill="#D6E3EB" stroke="black" stroke-width="0.796811"></path>
    <path d="M65.9123 111.186V114.673C65.8804 114.994 65.7374 115.282 65.522 115.498C65.3068 115.714 65.0194 115.857 64.6986 115.889H61.2158L65.9123 111.186Z" fill="#D6E3EB" stroke="black" stroke-width="0.796811"></path>
  </g>
  <defs>
    <linearGradient id="paint0_linear_218_23" x1="2944.55" y1="2780.61" x2="2944.55" y2="5562.24" gradientUnits="userSpaceOnUse">
      <stop stop-color="white" stop-opacity="0"></stop>
      <stop offset="0.62" stop-color="white" stop-opacity="0.62"></stop>
      <stop offset="1" stop-color="white"></stop>
    </linearGradient>
    <clipPath id="clip0_218_23">
      <rect width="128" height="128" fill="white"></rect>
    </clipPath>
  </defs>
</svg>
