<?xml version="1.0" encoding="UTF-8"?>
<svg xmlns="http://www.w3.org/2000/svg" width="128" height="128" viewBox="0 0 128 128" fill="none">
  <g clip-path="url(#clip0_218_16)">
    <path d="M107.51 23.2145C109.488 21.8057 111.968 21.0967 114.548 21.3728C117.128 21.6489 119.401 22.8661 121.034 24.6613C122.667 26.4561 123.661 28.8285 123.686 31.41C123.671 33.579 122.984 35.6305 121.792 37.3289C120.56 39.084 118.787 40.4621 116.657 41.2032V69.4453L102.599 82.5856V101.494C102.599 102.375 102.24 103.172 101.662 103.749C101.082 104.327 100.282 104.684 99.3979 104.684H7.51086C6.6534 104.718 5.8208 104.393 5.21411 103.788C4.6078 103.184 4.28214 102.354 4.31614 101.5V44.177C4.31614 43.331 4.65329 42.5197 5.25329 41.9215C5.85364 41.3229 6.66791 40.9868 7.51691 40.9868H99.3925C100.265 41.0176 101.051 41.3819 101.627 41.9561C102.202 42.5299 102.568 43.3133 102.599 44.1825V64.2638H110.255V41.1992C107.71 40.3619 105.704 38.6183 104.497 36.4356C103.324 34.3135 102.906 31.7763 103.481 29.2538C104.056 26.7312 105.532 24.623 107.51 23.2145Z" fill="white" stroke="#1D1D1B" stroke-width="0.627602"></path>
    <path d="M60.361 56.0044C61.245 56.0044 62.0453 56.3616 62.6246 56.9391C63.2036 57.5164 63.5618 58.3138 63.5618 59.1947V87.2333C63.5958 88.0878 63.2701 88.9173 62.6638 89.5218C62.0571 90.1267 61.2245 90.4514 60.3671 90.4175H46.3027C45.4187 90.4175 44.6184 90.0604 44.0391 89.4828C43.4601 88.9055 43.1019 88.1081 43.1019 87.2272V59.2001C43.1329 58.3309 43.4982 57.5475 44.0738 56.9737C44.6496 56.3996 45.4358 56.0352 46.3081 56.0044H60.361ZM30.871 59.5085C31.5418 59.4762 32.1963 59.7199 32.6814 60.1825C33.1645 60.6433 33.4376 61.281 33.4369 61.9479V84.4741C33.4369 85.1821 33.1489 85.8231 32.6835 86.2871C32.2178 86.7515 31.5744 87.0386 30.8637 87.0386H19.4413C18.7307 87.0386 18.0872 86.7515 17.6215 86.2871C17.1561 85.8231 16.8682 85.1821 16.8682 84.4741V61.9475C16.8675 61.281 17.1405 60.6433 17.6236 60.1825C18.1087 59.7199 18.7633 59.4762 19.434 59.5085H30.871ZM87.3552 59.5085C88.026 59.4762 88.6805 59.7199 89.1656 60.1825C89.6488 60.6433 89.9218 61.281 89.9211 61.9479V84.4741C89.9211 85.1821 89.6332 85.8231 89.1678 86.2871C88.702 86.7515 88.0586 87.0386 87.3479 87.0386H75.7997C75.1307 87.0393 74.4905 86.767 74.0281 86.285C73.5644 85.8017 73.32 85.1497 73.3524 84.4814V61.9479C73.3524 61.2744 73.6263 60.6646 74.069 60.2233C74.512 59.7816 75.124 59.5085 75.8 59.5085H87.3552ZM116.657 63.0125V80.2191C116.657 81.1 116.299 81.8974 115.72 82.4746C115.14 83.0522 114.34 83.4094 113.456 83.4094H103.226V63.0125H116.657Z" fill="#8E1841" stroke="black" stroke-width="0.627602"></path>
    <path d="M52.1394 21.335C59.0609 21.335 65.6589 23.3639 71.232 26.9681C76.6739 30.4876 81.1386 35.5092 83.9729 41.6106H20.3059C23.1402 35.5092 27.6049 30.4876 33.0468 26.9681C38.6199 23.3639 45.2179 21.335 52.1394 21.335Z" fill="#E8D0D9" stroke="black" stroke-width="0.627602"></path>
  </g>
  <defs>
    <clipPath id="clip0_218_16">
      <rect width="128" height="128" fill="white"></rect>
    </clipPath>
  </defs>
</svg>
