<?xml version="1.0" encoding="UTF-8"?>
<svg xmlns="http://www.w3.org/2000/svg" width="128" height="128" viewBox="0 0 128 128" fill="none">
  <g clip-path="url(#clip0_218_46)">
    <path d="M114.472 59.5962V118.869C114.518 119.865 114.154 120.837 113.466 121.557C112.781 122.275 111.834 122.68 110.843 122.679H17.3345C16.3252 122.679 15.3573 122.277 14.6436 121.561C13.9294 120.844 13.5283 119.872 13.5283 118.859V59.5962H114.472Z" fill="white" stroke="#1D1D1B" stroke-width="0.888494"></path>
    <path d="M117.291 25.5903H10.7091C8.35374 25.5903 6.44434 27.4997 6.44434 29.8551V55.4615C6.44434 57.8169 8.35374 59.7263 10.7091 59.7263H117.291C119.646 59.7263 121.556 57.8169 121.556 55.4615V29.8551C121.556 27.4997 119.646 25.5903 117.291 25.5903Z" fill="white" stroke="#1D1D1B" stroke-width="0.888494"></path>
    <path d="M72.2032 25.4663V123.556H56.4443V25.4663H72.2032Z" fill="#E8D0D9" stroke="black" stroke-width="0.888494"></path>
    <path d="M85.2617 4.44434C89.1665 4.48934 92.8908 6.10129 95.6032 8.92012C98.3162 11.7395 99.7912 15.5315 99.6989 19.4528C99.6598 21.8828 99.1116 24.2764 98.0912 26.4783L29.0479 26.302C28.0119 24.1698 27.4639 21.8308 27.4453 19.4547C27.3995 15.5192 28.9136 11.7266 31.6548 8.91141C34.3955 6.09678 38.1382 4.48982 42.0546 4.44437C46.4601 4.44437 50.1892 6.30008 53.3088 8.96841C57.8425 12.8463 61.0979 18.4374 63.265 22.6828C63.3936 22.9346 63.5237 23.1924 63.6553 23.4556C63.7901 23.1934 63.9233 22.937 64.0543 22.6867C66.2391 18.511 69.4677 12.8436 74.0452 8.92828C77.1338 6.28643 80.8413 4.44437 85.2617 4.44434Z" fill="#8E1841" stroke="black" stroke-width="0.888494"></path>
  </g>
  <defs>
    <clipPath id="clip0_218_46">
      <rect width="128" height="128" fill="white"></rect>
    </clipPath>
  </defs>
</svg>
