<?xml version="1.0" encoding="UTF-8"?>
<svg xmlns="http://www.w3.org/2000/svg" width="128" height="128" viewBox="0 0 128 128" fill="none">
  <g clip-path="url(#clip0_218_64)">
    <path d="M70.5468 14.3687L94.9739 23.5075L99.2424 24.9818L121.078 33.1104C122.05 33.4093 122.851 34.1045 123.285 35.0251C123.719 35.945 123.746 37.0053 123.36 37.9466L96.3687 112.116C96.0348 113.065 95.3359 113.841 94.4275 114.271C93.5194 114.7 92.4774 114.748 91.5328 114.403L71.9258 107.315L66.166 105.096L64.1038 104.358L54.8107 100.959L40.8105 95.9405C39.8824 95.5775 39.179 94.8855 38.7822 94.0493C38.3841 93.2106 38.2943 92.2269 38.5957 91.2844L48.8393 63.0223L54.148 48.2505L64.3237 20.1826L64.9107 18.5655L65.6484 16.7921C66.0915 15.5503 67.1499 14.6319 68.4378 14.3687H70.5468Z" fill="#E8D0D9" stroke="black" stroke-width="0.737373"></path>
    <path d="M59.5199 14.5166C60.848 14.7608 61.9568 15.6749 62.4513 16.9347L63.631 20.332L73.9533 48.3975L79.2631 63.1721L86.9304 84.1456L89.4345 91.2278C89.7558 92.2141 89.6651 93.2403 89.253 94.1145C88.8419 94.9865 88.111 95.7072 87.15 96.086L73.1413 100.961L63.8528 104.357L61.7854 105.097L36.4203 114.404C35.4767 114.748 34.4348 114.7 33.5266 114.271C32.6183 113.841 31.9193 113.065 31.5841 112.112L4.59626 37.9536C4.25207 37.008 4.29981 35.9638 4.72884 35.0537C5.15777 34.1438 5.93219 33.4436 6.88416 33.1075L32.9866 23.5055L57.5535 14.5166H59.5199Z" fill="#E8D0D9" stroke="black" stroke-width="0.737373"></path>
    <path d="M90.5961 14.3687H37.3578C35.0773 14.3687 33.2285 16.2174 33.2285 18.4979V96.8234C33.2285 99.1039 35.0773 100.953 37.3578 100.953H90.5961C92.8767 100.953 94.7254 99.1039 94.7254 96.8234V18.4979C94.7254 16.2174 92.8767 14.3687 90.5961 14.3687Z" fill="white" stroke="#1D1D1B" stroke-width="0.737373"></path>
    <path d="M63.9788 39.4604L74.0475 48.3936L78.9073 52.9664C80.3024 54.3495 81.0364 56.1007 81.1115 57.8561C81.1871 59.622 80.5956 61.3911 79.3436 62.7893C77.9352 64.1124 76.1554 64.7751 74.3924 64.7751C72.6289 64.7751 70.8827 64.1116 69.547 62.785L65.3613 58.5922L69.6989 75.9722H58.2541L62.5889 58.4482L58.4065 62.6377C57.1475 63.9033 55.4374 64.6147 53.6538 64.6147C51.8702 64.6147 50.16 63.9033 48.9088 62.6458C47.5598 61.2043 46.9199 59.4449 46.9448 57.7248C46.9702 55.9699 47.6874 54.2579 49.0357 52.9768L54.0479 48.3991L63.9788 39.4604Z" fill="#8E1841" stroke="black" stroke-width="0.737373"></path>
    <path d="M44.1402 21.0957C44.4744 21.1794 44.763 21.3853 44.9506 21.6687L45.0247 21.7948L49.9253 31.4684L47.4136 32.7264L46.1314 30.4431H41.2588L40.1217 32.7211L37.6206 31.4684L42.5033 21.8303L43.0482 21.2844C43.3692 21.0707 43.7656 21.0019 44.1402 21.0957ZM43.773 25.5538L42.7789 27.5454H44.7671L43.773 25.5538Z" fill="#8E1841" stroke="black" stroke-width="0.5"></path>
    <path d="M87.8346 82.5811L90.4788 83.8424L85.5719 93.5285C85.4819 93.81 85.2642 94.0317 84.9854 94.1266C84.6121 94.3667 84.2176 94.42 83.8584 94.3001C83.5395 94.1936 83.2802 93.9613 83.1382 93.6602L83.0847 93.5271L78.1763 83.838L80.6774 82.5853L81.8144 84.8633H86.6954L87.8346 82.5811ZM85.3227 87.761H83.1406L84.3529 89.704L85.3227 87.761Z" fill="#8E1841" stroke="black" stroke-width="0.5"></path>
  </g>
  <defs>
    <clipPath id="clip0_218_64">
      <rect width="128" height="128" fill="white"></rect>
    </clipPath>
  </defs>
</svg>
